<svg xmlns="http://www.w3.org/2000/svg" viewBox="0 0 200 60" fill="white">
  <path d="M86.4,36.5c-5.5,4.1-13.4,6.2-20.3,6.2c-9.6,0-18.2-3.5-24.8-9.4c-0.5-0.5-0.1-1.1,0.6-0.7c7.1,4.1,15.8,6.6,24.8,6.6c6.1,0,12.8-1.3,18.9-3.9C86.6,34.8,87.4,35.8,86.4,36.5z"/>
  <path d="M88.5,34.1c-0.7-0.9-4.7-0.4-6.5-0.2c-0.5,0.1-0.6-0.4-0.1-0.8c3.2-2.2,8.4-1.6,9-0.8c0.6,0.8-0.2,6.1-3.2,8.7c-0.5,0.4-0.9,0.2-0.7-0.3C87.7,39.2,89.2,35,88.5,34.1z"/>
  <path d="M80.3,14.7v-2.5c0-0.4,0.3-0.6,0.6-0.6h11.2c0.3,0,0.6,0.3,0.6,0.6v2.1c0,0.4-0.3,0.8-0.8,1.6l-5.8,8.3c2.2-0.1,4.4,0.3,6.4,1.5c0.4,0.3,0.5,0.7,0.6,1.1v2.7c0,0.4-0.4,0.9-0.9,0.6c-3.7-1.9-8.5-2.1-12.6,0c-0.4,0.2-0.9-0.2-0.9-0.6v-2.5c0-0.4,0-1.2,0.5-1.9l6.7-9.6h-5.8C80.6,15.3,80.3,15.1,80.3,14.7z"/>
  <path d="M29.5,28.7h-3.4c-0.3,0-0.6-0.3-0.6-0.6V12.2c0-0.3,0.3-0.6,0.6-0.6h3.2c0.3,0,0.6,0.3,0.6,0.6v2.1h0.1c0.8-2.2,2.4-3.3,4.5-3.3c2.1,0,3.5,1.1,4.4,3.3c0.8-2.2,2.7-3.3,4.7-3.3c1.4,0,3,0.6,3.9,1.9c1.1,1.4,0.9,3.5,0.9,5.4l0,10.1c0,0.3-0.3,0.6-0.6,0.6h-3.4c-0.3,0-0.6-0.3-0.6-0.6V19.5c0-0.8,0.1-2.7-0.1-3.5c-0.3-1.2-1.1-1.6-2.2-1.6c-0.9,0-1.8,0.6-2.2,1.6c-0.4,1-0.3,2.6-0.3,3.5v8.6c0,0.3-0.3,0.6-0.6,0.6h-3.4c-0.3,0-0.6-0.3-0.6-0.6V19.5c0-2.1,0.3-5.1-2.2-5.1c-2.6,0-2.5,3-2.5,5.1v8.6C30.1,28.4,29.9,28.7,29.5,28.7z"/>
  <path d="M110.2,12.9c5,0,7.7,4.3,7.7,9.7c0,5.3-3,9.4-7.7,9.4c-4.9,0-7.6-4.3-7.6-9.6C102.6,17.1,105.3,12.9,110.2,12.9z M110.2,16.5c-2.5,0-2.6,3.4-2.6,5.5c0,2.1,0,6.6,2.6,6.6c2.6,0,2.7-3.6,2.7-5.8c0-1.4-0.1-3.1-0.5-4.5C112,17.2,111.2,16.5,110.2,16.5z"/>
  <path d="M125.1,28.7h-3.4c-0.3,0-0.6-0.3-0.6-0.6V12.2c0-0.3,0.3-0.6,0.6-0.6h3.2c0.3,0,0.5,0.2,0.6,0.5v2.2h0.1c1-2.4,2.3-3.5,4.7-3.5c1.5,0,3,0.6,4,2.2c0.9,1.5,0.9,4,0.9,5.8v10.3c0,0.3-0.3,0.6-0.6,0.6h-3.4c-0.3,0-0.6-0.3-0.6-0.6v-8.9c0-1.8,0.2-4.4-2-4.4c-0.8,0-1.5,0.5-1.9,1.3c-0.5,1-0.6,2-0.6,3.1v8.9C125.7,28.4,125.5,28.7,125.1,28.7z"/>
  <path d="M66.9,23.6c0,1.3,0,2.4-0.6,3.6c-0.8,1.5-2.1,2.4-3.6,2.4c-2,0-3.2-1.5-3.2-3.8c0-4.4,4-5.2,7.7-5.2v1C67.2,21.6,66.9,22.5,66.9,23.6z M70.4,28.7c-0.2,0.2-0.6,0.2-0.8,0.1c-1.2-1-1.4-1.5-2-2.4c-1.9,2-3.3,2.5-5.8,2.5c-3,0-5.3-1.8-5.3-5.5c0-2.9,1.6-4.8,3.8-5.8c1.9-0.8,4.6-1,6.7-1.2v-0.5c0-0.8,0.1-1.8-0.4-2.6c-0.4-0.7-1.3-0.9-2.1-0.9c-1.4,0-2.7,0.7-3,2.2c-0.1,0.3-0.3,0.6-0.6,0.6l-3.3-0.4c-0.3-0.1-0.6-0.3-0.5-0.7c0.8-4.1,4.5-5.3,7.8-5.3c1.7,0,3.9,0.5,5.3,1.7c1.7,1.6,1.5,3.6,1.5,5.9v5.3c0,1.6,0.7,2.3,1.3,3.2c0.2,0.3,0.3,0.7,0,0.9C71.5,27.8,70.8,28.4,70.4,28.7z"/>
  <path d="M13.8,23.6c0,1.3,0,2.4-0.6,3.6c-0.8,1.5-2.1,2.4-3.6,2.4c-2,0-3.2-1.5-3.2-3.8c0-4.4,4-5.2,7.7-5.2v1C14.1,21.6,13.8,22.5,13.8,23.6z M17.3,28.7c-0.2,0.2-0.6,0.2-0.8,0.1c-1.2-1-1.4-1.5-2-2.4c-1.9,2-3.3,2.5-5.8,2.5c-3,0-5.3-1.8-5.3-5.5c0-2.9,1.6-4.8,3.8-5.8c1.9-0.8,4.6-1,6.7-1.2v-0.5c0-0.8,0.1-1.8-0.4-2.6c-0.4-0.7-1.3-0.9-2.1-0.9c-1.4,0-2.7,0.7-3,2.2c-0.1,0.3-0.3,0.6-0.6,0.6l-3.3-0.4c-0.3-0.1-0.6-0.3-0.5-0.7c0.8-4.1,4.5-5.3,7.8-5.3c1.7,0,3.9,0.5,5.3,1.7c1.7,1.6,1.5,3.6,1.5,5.9v5.3c0,1.6,0.7,2.3,1.3,3.2c0.2,0.3,0.3,0.7,0,0.9C18.4,27.8,17.7,28.4,17.3,28.7z"/>
  <path d="M155.1,28.7h-3.4c-0.3,0-0.6-0.3-0.6-0.6V12.2c0-0.3,0.3-0.6,0.6-0.6h3.4c0.3,0,0.6,0.3,0.6,0.6v16C155.7,28.4,155.4,28.7,155.1,28.7z"/>
  <path d="M155.1,9.1h-3.4c-0.3,0-0.6-0.3-0.6-0.6V5.6c0-0.3,0.3-0.6,0.6-0.6h3.4c0.3,0,0.6,0.3,0.6,0.6v2.9C155.7,8.8,155.4,9.1,155.1,9.1z"/>
  <path d="M169.5,23.6c0,1.3,0,2.4-0.6,3.6c-0.8,1.5-2.1,2.4-3.6,2.4c-2,0-3.2-1.5-3.2-3.8c0-4.4,4-5.2,7.7-5.2v1C169.8,21.6,169.5,22.5,169.5,23.6z M173,28.7c-0.2,0.2-0.6,0.2-0.8,0.1c-1.2-1-1.4-1.5-2-2.4c-1.9,2-3.3,2.5-5.8,2.5c-3,0-5.3-1.8-5.3-5.5c0-2.9,1.6-4.8,3.8-5.8c1.9-0.8,4.6-1,6.7-1.2v-0.5c0-0.8,0.1-1.8-0.4-2.6c-0.4-0.7-1.3-0.9-2.1-0.9c-1.4,0-2.7,0.7-3,2.2c-0.1,0.3-0.3,0.6-0.6,0.6l-3.3-0.4c-0.3-0.1-0.6-0.3-0.5-0.7c0.8-4.1,4.5-5.3,7.8-5.3c1.7,0,3.9,0.5,5.3,1.7c1.7,1.6,1.5,3.6,1.5,5.9v5.3c0,1.6,0.7,2.3,1.3,3.2c0.2,0.3,0.3,0.7,0,0.9C174.1,27.8,173.4,28.4,173,28.7z"/>
  <path d="M182.3,20.9c0-2.4,0.1-4.4-0.8-6.5c-0.7-1.7-1.8-2.8-3.1-2.8c-1.7,0-2.7,1.3-3.3,3.3c-0.4,1.3-0.5,2.7-0.5,4v8.2c0,0.3,0.3,0.6,0.6,0.6h3.4c0.3,0,0.6-0.3,0.6-0.6V20.9z M186.3,28.7h-3.4c-0.3,0-0.6-0.3-0.6-0.6v-2h-0.1c-0.8,1.6-2,2.8-4.1,2.8c-1.7,0-3.3-0.6-4.3-2.4c-0.9-1.5-0.8-4.1-0.8-6v-8.4c0-0.3,0.3-0.6,0.6-0.6h3.4c0.3,0,0.6,0.2,0.6,0.5v7.2c0,1.4-0.1,3.4,0.2,4.8c0.2,1.1,0.9,1.8,1.8,1.8c0.8,0,1.5-0.5,1.9-1.4c0.5-1.2,0.5-2.5,0.5-3.7v-8.2c0-0.3,0.3-0.6,0.6-0.6h3.4c0.3,0,0.6,0.3,0.6,0.6v16C186.9,28.4,186.6,28.7,186.3,28.7z"/>
</svg>
