<svg xmlns="http://www.w3.org/2000/svg" viewBox="0 0 200 60" fill="white">
  <path d="M38.5,10h-27C6.6,10,2.5,14.1,2.5,19v22c0,4.9,4.1,9,9,9h27c4.9,0,9-4.1,9-9V19C47.5,14.1,43.4,10,38.5,10z M25,40c-5.5,0-10-4.5-10-10s4.5-10,10-10s10,4.5,10,10S30.5,40,25,40z"/>
  <path d="M25,24c-3.3,0-6,2.7-6,6s2.7,6,6,6s6-2.7,6-6S28.3,24,25,24z"/>
  <path d="M60,20h8.5c4.1,0,7.5,3.4,7.5,7.5s-3.4,7.5-7.5,7.5H60V20z M68.5,31c1.9,0,3.5-1.6,3.5-3.5S70.4,24,68.5,24H64v7H68.5z"/>
  <path d="M80,20h13v4h-9v3h8v4h-8v3h9v4H80V20z"/>
  <path d="M97,20h5l7,10V20h4v18h-5l-7-10v10h-4V20z"/>
  <path d="M125,20h4v18h-4V20z"/>
  <path d="M140,20h4v14h8v4h-12V20z"/>
</svg>
