<svg xmlns="http://www.w3.org/2000/svg" viewBox="0 0 200 60" fill="white">
  <path d="M87.6,22.9c-5.7,0-10.3,4.5-10.3,10.1c0,5.9,4.3,10.1,10.4,10.1c6.4,0,10.2-4.5,10.2-10.2C97.9,27.1,93.6,22.9,87.6,22.9z M87.7,39c-3.5,0-6.1-2.6-6.1-6.1c0-3.4,2.5-6.1,6-6.1c3.5,0,6,2.7,6,6.1C93.6,36.4,91.1,39,87.7,39z"/>
  <path d="M106.9,22.9c-5.2,0-8.9,4-8.9,10.2c0,5.9,3.5,10.1,8.7,10.1c2.7,0,4.8-1.1,6.2-3.1v0.6c0,2.2-1.4,4.2-4.6,4.2c-1.9,0-3.6-0.6-4.7-1.3l-0.2-0.1l-1.4,3.1l0.1,0.1c1.6,1,3.9,1.6,6.2,1.6c5.9,0,8.8-3.1,8.8-9.2V23.4h-4.1v2.2C111.7,24,109.6,22.9,106.9,22.9z M107.8,39c-3.2,0-5.5-2.6-5.5-6.1c0-3.6,2.3-6.1,5.5-6.1c3.1,0,5.2,2.4,5.2,6.1C113,36.6,110.9,39,107.8,39z"/>
  <path d="M66.6,22.9c-2.9,0-5.2,1.2-6.5,3.3v-2.8h-4.1v26.1h4.2V36.1c1.3,2.1,3.5,3.3,6.3,3.3c5.2,0,8.7-4,8.7-10.1C75.3,26.9,71.7,22.9,66.6,22.9z M65.7,35.1c-3.1,0-5.2-2.4-5.2-6.1c0-3.7,2.1-6.1,5.2-6.1c3.2,0,5.5,2.5,5.5,6.1C71.2,32.5,68.9,35.1,65.7,35.1z"/>
  <path d="M129.6,22.9c-5.9,0-10,4.4-10,10.2c0,5.9,4.1,10.1,10.2,10.1c3,0,5.8-0.9,7.9-2.5l0.1-0.1l-1.7-2.9l-0.2,0.1c-1.5,1.1-3.5,1.7-5.6,1.7c-3.4,0-5.9-2-6.3-5h15.6l0-0.2c0.1-0.6,0.2-1.4,0.2-2.2C139.8,26.9,135.8,22.9,129.6,22.9z M124,30.7c0.5-2.8,2.6-4.5,5.5-4.5c2.9,0,4.9,1.7,5.2,4.5H124z"/>
  <path d="M148.3,26.2v-2.8h-4.1v19.2h4.2v-9.8c0-4.2,1.8-6.5,5-6.5c0.6,0,1.3,0.1,1.9,0.3l0.2,0.1l0.1-4.1l-0.2-0.1c-0.7-0.2-1.4-0.3-2.1-0.3C151,22.3,149.1,23.8,148.3,26.2z"/>
  <path d="M42.5,16.9c-8.4,0-14.5,6.4-14.5,15.2c0,9.1,5.7,15.2,14.7,15.2c4.6,0,8.2-1.3,11.4-4.1l0.1-0.1l-2.6-3.1l-0.1,0.1c-2.3,2-5.1,3-8.3,3c-5.5,0-9.4-3.4-10-8.8h23.3l0-0.2c0.1-0.9,0.2-1.8,0.2-2.7C56.7,23.1,51.1,16.9,42.5,16.9z M33.2,29.7c0.8-4.8,4.5-8,9.2-8c5,0,8.2,3.1,8.6,8H33.2z"/>
  <path d="M168.5,23.4h-6.9v-5.8h-4.2v5.8h-3.7v3.6h3.7v9.8c0,4.8,1.9,7.1,6.2,7.1c1.5,0,3.2-0.3,4.4-0.9l0.2-0.1l-0.1-3.5l-0.2,0.1c-0.8,0.4-1.8,0.6-2.8,0.6c-1.9,0-3.5-0.8-3.5-3.9V27h6.9V23.4z"/>
</svg>
