<svg xmlns="http://www.w3.org/2000/svg" viewBox="0 0 200 60" fill="white">
  <path d="M89.3,29.5c-0.4-0.5-0.6-1.3-0.6-2.3c0-2.2,1.4-4.4,4.1-4.4c1.9,0,2.9,1.5,2.9,3.3c0,2.7-1.7,4.2-4.1,4.2C90.5,30.3,89.8,30,89.3,29.5z M101.7,41.9c-0.5,0.6-1.5,1.3-2.9,1.3c-2.2,0-3.2-1.1-3.2-2.8c0-2.5,2.7-3.3,5-3.3h1.1V41.9z M107.9,45.5c-0.8,0.7-2.2,1.1-3.7,1.1c-1.9,0-3.6-0.9-3.6-3.1v-0.2h-0.1c-1,1.7-2.9,3.3-5.9,3.3c-3,0-5.2-1.5-5.2-4.8c0-3.8,3.3-5.7,9.3-5.7h1.7v-1.2c0-2.1-0.6-3.7-3.3-3.7c-1.6,0-2.9,0.4-4,1l-0.8,2.5c-0.1,0.4-0.3,0.6-0.7,0.6c-0.5,0-1-0.4-1-1c0-1.1,1.9-3.6,6.8-3.6c3.7,0,6.3,1.9,6.3,6.5v6.7c0,1.1,0.4,1.6,1.3,1.6c0.3,0,0.6-0.1,0.8-0.2L107.9,45.5z"/>
  <path d="M122.6,46.3h-3.8c-0.3,0-0.5-0.2-0.5-0.5V33.1c0-2.1-0.7-3-2.1-3c-1.8,0-3,1.9-3.5,3.1v12.1c0,0.3-0.2,0.5-0.5,0.5h-3.8c-0.3,0-0.5-0.2-0.5-0.5V25.1c0-0.3,0.2-0.5,0.5-0.5h3.8c0.3,0,0.5,0.2,0.5,0.5v1.7c1-1.3,2.9-2.6,5.4-2.6c3.5,0,5,2,5,5.7v15.9C123.1,46.1,122.9,46.3,122.6,46.3z"/>
  <path d="M137.7,46.3h-3.8c-0.3,0-0.5-0.2-0.5-0.5v-1.7c-1,1.3-2.9,2.6-5.4,2.6c-3.5,0-5-2-5-5.7V25.1c0-0.3,0.2-0.5,0.5-0.5h3.8c0.3,0,0.5,0.2,0.5,0.5v13.2c0,2.1,0.7,3,2.1,3c1.8,0,3-1.9,3.5-3.1V25.1c0-0.3,0.2-0.5,0.5-0.5h3.8c0.3,0,0.5,0.2,0.5,0.5v20.7C138.2,46.1,138,46.3,137.7,46.3z"/>
  <path d="M152.5,46.3h-3.8c-0.3,0-0.5-0.2-0.5-0.5v-1.7c-1,1.3-2.9,2.6-5.4,2.6c-3.5,0-5-2-5-5.7V25.1c0-0.3,0.2-0.5,0.5-0.5h3.8c0.3,0,0.5,0.2,0.5,0.5v13.2c0,2.1,0.7,3,2.1,3c1.8,0,3-1.9,3.5-3.1V25.1c0-0.3,0.2-0.5,0.5-0.5h3.8c0.3,0,0.5,0.2,0.5,0.5v20.7C153,46.1,152.8,46.3,152.5,46.3z"/>
  <path d="M166.9,46.3h-3.8c-0.3,0-0.5-0.2-0.5-0.5v-1.7c-1,1.3-2.9,2.6-5.4,2.6c-3.5,0-5-2-5-5.7V25.1c0-0.3,0.2-0.5,0.5-0.5h3.8c0.3,0,0.5,0.2,0.5,0.5v13.2c0,2.1,0.7,3,2.1,3c1.8,0,3-1.9,3.5-3.1V25.1c0-0.3,0.2-0.5,0.5-0.5h3.8c0.3,0,0.5,0.2,0.5,0.5v20.7C167.4,46.1,167.2,46.3,166.9,46.3z"/>
  <path d="M59.8,13.7c0-0.3,0.2-0.5,0.5-0.5h19.7c0.3,0,0.5,0.2,0.5,0.5v3.3c0,0.3-0.2,0.5-0.5,0.5H64.6v8.4h13.1c0.3,0,0.5,0.2,0.5,0.5v3.3c0,0.3-0.2,0.5-0.5,0.5H64.6v9.1h15.4c0.3,0,0.5,0.2,0.5,0.5v3.3c0,0.3-0.2,0.5-0.5,0.5H60.3c-0.3,0-0.5-0.2-0.5-0.5V13.7z"/>
</svg>
