<svg xmlns="http://www.w3.org/2000/svg" viewBox="0 0 200 60" fill="white">
  <path d="M70,30.7c-16.6,5.9-24.9,12.6-30.9,19.1c-8.5-8.8-3.2-22.3,4.1-28c7.4-5.8,18.7-6.4,26.8-2.4V30.7z"/>
  <path d="M197.5,25.9c0-2.1-1.6-3-3.6-3h-4.5v10.4h2.2v-4.1h1.9l2.2,4.1h2.4l-2.4-4.4C196.9,28.5,197.5,27.4,197.5,25.9z M193.5,27.4h-1.9v-2.7h2c0.9,0,1.7,0.3,1.7,1.3C195.3,27.1,194.5,27.4,193.5,27.4z"/>
  <path d="M193.7,19.2c-5.3,0-9.6,4.3-9.6,9.6c0,5.3,4.3,9.6,9.6,9.6c5.3,0,9.6-4.3,9.6-9.6C203.3,23.5,199,19.2,193.7,19.2z M193.7,36.5c-4.3,0-7.7-3.5-7.7-7.7c0-4.3,3.5-7.7,7.7-7.7c4.3,0,7.7,3.5,7.7,7.7C201.4,33.1,198,36.5,193.7,36.5z"/>
  <path d="M176.7,25.1c-3.5,0-6.1,2.6-6.1,6.1c0,3.5,2.6,6.1,6.1,6.1c3.5,0,6.1-2.6,6.1-6.1C182.8,27.7,180.2,25.1,176.7,25.1z M176.7,34.8c-2,0-3.6-1.6-3.6-3.6c0-2,1.6-3.6,3.6-3.6c2,0,3.6,1.6,3.6,3.6C180.3,33.2,178.7,34.8,176.7,34.8z"/>
  <path d="M165.2,25.1c-3.5,0-6.1,2.6-6.1,6.1c0,3.5,2.6,6.1,6.1,6.1c3.5,0,6.1-2.6,6.1-6.1C171.3,27.7,168.7,25.1,165.2,25.1z M165.2,34.8c-2,0-3.6-1.6-3.6-3.6c0-2,1.6-3.6,3.6-3.6c2,0,3.6,1.6,3.6,3.6C168.8,33.2,167.2,34.8,165.2,34.8z"/>
  <path d="M158.3,36.9h2.5V25.5h-2.5V36.9z"/>
  <path d="M158.3,23.5h2.5v-2.5h-2.5V23.5z"/>
  <path d="M152.5,29.4c0-2.3-1.4-3.9-3.6-3.9c-1.2,0-2.5,0.5-3.2,1.9v-1.9h-2.5v11.4h2.5v-6.1c0-1.8,1-2.8,2.4-2.8c1.3,0,2,0.7,2,2.3v6.6h2.5V29.4z"/>
  <path d="M137.5,25.5h-3.6v-3.1h-2.5v3.1h-2.1v2.2h2.1v5.4c0,2.4,1.9,3.8,4,3.8c0.8,0,1.5-0.1,2.1-0.4v-2.2c-0.4,0.2-1,0.3-1.5,0.3c-1,0-2.1-0.3-2.1-2.1v-4.8h3.6V25.5z"/>
  <path d="M122.3,25.1c-1.3,0-2.5,0.5-3.2,1.9v-1.5h-2.5v11.4h2.5v-6.1c0-1.8,1-2.8,2.4-2.8c1.3,0,2,0.7,2,2.3v6.6h2.5v-7.5C126,26.7,124.5,25.1,122.3,25.1z"/>
  <path d="M110.1,25.1c-3.5,0-6.1,2.6-6.1,6.1c0,3.5,2.6,6.1,6.1,6.1c2.1,0,3.9-1,5-2.6l-2-1.1c-0.6,0.9-1.7,1.5-3,1.5c-1.7,0-3.2-1.2-3.5-2.8h9c0-0.2,0.1-0.4,0.1-0.7C114.7,28,112.8,25.1,110.1,25.1z M106.6,30.1c0.4-1.5,1.6-2.5,3.2-2.5c1.6,0,2.8,1,3.2,2.5H106.6z"/>
  <path d="M98.7,27.7c0-0.7,0.6-1.1,1.3-1.1c0.6,0,1.1,0.2,1.5,0.7l1.8-1.4c-0.8-1-2.1-1.6-3.3-1.6c-2.1,0-3.8,1.3-3.8,3.4c0,3.9,5.8,2.9,5.8,5c0,0.8-0.7,1.2-1.6,1.2c-1,0-1.7-0.4-2.2-1.1l-1.8,1.5c0.9,1.2,2.3,1.9,3.9,1.9c2.2,0,4.1-1.1,4.1-3.5C104.5,28.7,98.7,29.5,98.7,27.7z"/>
</svg>
