<svg xmlns="http://www.w3.org/2000/svg" viewBox="0 0 200 60" fill="white">
  <path d="M107.5,18.6c0-0.3-0.3-0.5-0.5-0.5c-0.3,0-5.5,0.4-5.5,0.4s-3.6-3.6-4-4c-0.4-0.4-1.1-0.3-1.4-0.2c0,0-0.7,0.2-1.9,0.6c-1.1-3.2-3.1-6.2-6.6-6.2h-0.3c-1-1.3-2.2-1.9-3.3-1.9c-8.3,0-12.3,10.4-13.5,15.7c-3.2,1-5.5,1.7-5.8,1.8c-1.8,0.6-1.9,0.6-2.1,2.3c-0.2,1.3-4.7,36.2-4.7,36.2l35.4,6.6l19.2-4.1C112.5,65.3,107.5,19,107.5,18.6z M93.6,22.5c-2.7,0.8-5.8,1.8-8.8,2.7c0.8-3.2,2.5-7.8,5.6-7.8C92.8,17.4,93.5,20.2,93.6,22.5z M89.1,14.5c0.9,0,1.7,0.3,2.4,0.9c-3.8,1.8-7.9,6.2-9.6,15.1c-2.5,0.8-5,1.5-7.2,2.2C76.8,26.2,80.5,14.5,89.1,14.5z M84.9,49.2l-3-0.9c0,0,0,0,0,0l2.6-13.8c0,0,0,0,0,0c0,0,1.1,0.2,2.5,0.5c1.3,0.3,2.8,0.6,3.8,0.8c0,0,0,0,0,0C90.1,39.6,88.1,45.1,84.9,49.2z"/>
  <path d="M106.9,18.1c-0.3,0-5.5,0.4-5.5,0.4s-3.6-3.6-4-4c-0.1-0.1-0.3-0.2-0.5-0.3l0,49.1l19.2-4.1c0,0-5-46.3-5-46.7C111.1,18.3,107.2,18.1,106.9,18.1z"/>
  <path d="M125.1,33.6c-1.2-0.7-1.8-1.2-1.8-2c0-1,0.9-1.6,2.3-1.6c1.6,0,3.1,0.7,3.1,0.7l1.2-3.6c0,0-1-0.8-4-0.8c-4.2,0-7.1,2.4-7.1,5.8c0,1.9,1.4,3.4,3.2,4.5c1.5,0.9,2,1.5,2,2.4c0,1-0.6,1.7-1.8,1.7c-1.7,0-3.4-0.9-3.4-0.9l-1.3,3.7c0,0,1.5,1,4.1,1c3.7,0,7.1-1.8,7.1-6C128.7,36.3,127.1,34.7,125.1,33.6z"/>
  <path d="M141.3,26.4c-1.8,0-3.3,0.9-4.4,2.2l0,0l1.6-8.2h-5.1l-4,21.2h5.1l1.4-7.3c0.5-2.7,2-4.4,3.3-4.4c0.9,0,1.3,0.6,1.3,1.5c0,0.6-0.1,1.2-0.2,1.8l-1.6,8.4h5.1l1.6-8.7c0.2-0.9,0.3-2,0.3-2.7C145.7,27.8,144,26.4,141.3,26.4z"/>
  <path d="M156.4,26.4c-6.1,0-10.2,5.5-10.2,11.7c0,3.9,2.4,7.1,7,7.1c6,0,10.1-5.4,10.1-11.7C163.3,29.5,161,26.4,156.4,26.4z M154.4,41c-1.7,0-2.5-1.5-2.5-3.3c0-2.9,1.5-7.6,4.2-7.6c1.8,0,2.4,1.5,2.4,3C158.5,36.2,157.1,41,154.4,41z"/>
  <path d="M175.8,26.4c-3.4,0-5.4,3-5.4,3h-0.1l0.3-2.7h-4.5c-0.2,1.9-0.6,4.7-1,6.9l-3.5,18.3h5.1l1.4-7.4h0.1c0,0,1.3,0.7,3.7,0.7c7.4,0,12.2-7.5,12.2-15.1C184,27.5,181.5,26.4,175.8,26.4z M173.4,41c-1.6,0-2.6-0.9-2.6-0.9l1-5.8c0.7-3.8,2.7-6.3,4.9-6.3c1.9,0,2.5,1.7,2.5,3.4C179.2,35.6,176.8,41,173.4,41z"/>
</svg>
