<svg xmlns="http://www.w3.org/2000/svg" viewBox="0 0 200 60" fill="white">
  <path d="M100,15c-8.3,0-15,6.7-15,15s6.7,15,15,15s15-6.7,15-15S108.3,15,100,15z M100,41.7c-6.5,0-11.7-5.3-11.7-11.7S93.5,18.3,100,18.3S111.7,23.5,111.7,30S106.5,41.7,100,41.7z"/>
  <path d="M100,22.5c-4.1,0-7.5,3.4-7.5,7.5s3.4,7.5,7.5,7.5s7.5-3.4,7.5-7.5S104.1,22.5,100,22.5z M100,33.3c-1.8,0-3.3-1.5-3.3-3.3s1.5-3.3,3.3-3.3s3.3,1.5,3.3,3.3S101.8,33.3,100,33.3z"/>
  <path d="M100,26.7c-1.8,0-3.3,1.5-3.3,3.3s1.5,3.3,3.3,3.3s3.3-1.5,3.3-3.3S101.8,26.7,100,26.7z M100,30c-0,0-0,0-0,0c0,0,0,0,0,0C100,30,100,30,100,30z"/>
</svg>
