<svg xmlns="http://www.w3.org/2000/svg" viewBox="0 0 200 60" fill="white">
  <path d="M142.5,18.4l-3.9,11.2h-0.1l-3.7-11.2h-4.8l6.5,17.1c0.3,0.9,0.1,1.2-0.3,1.9c-0.7,1.2-1.5,2.1-2.6,2.9c-0.9,0.6-1.7,0.9-2.5,1.1l1,3.2c1.1-0.1,2.4-0.6,3.6-1.3c2.4-1.4,4.7-3.8,6.3-7.3l7.1-17.6H142.5z"/>
  <path d="M116.5,18.4l-3.2,9.8h-0.1l-3-9.8h-4.5l-3,9.9h-0.1l-3.1-9.9h-5l5.8,17.6h4.5l3.1-9.5h0.1l3,9.5h4.6l5.9-17.6H116.5z"/>
  <path d="M83.6,18.4l-7.5,17.6h4.7l1.5-3.9h8.2l1.4,3.9h4.8l-7.4-17.6H83.6z M83.5,28.5l2.9-7.5h0.1l2.8,7.5H83.5z"/>
  <path d="M67.7,18.4v10.5c0,2.5-1.3,4.3-4.2,4.3c-2.9,0-4.2-1.8-4.2-4.3V18.4h-4.5v11.3c0,4.7,3.2,6.8,8.7,6.8c5.5,0,8.7-2.1,8.7-6.8V18.4H67.7z"/>
  <path d="M100,30.1c-2.4-0.5-3.1-0.8-3.1-1.7c0-1.1,1.1-1.4,2.1-1.4c1.7,0,3,0.5,4.1,1.2l1.9-2.8c-1.4-1-3.4-1.7-5.8-1.7c-3.9,0-6.7,2.2-6.7,5.2c0,2.6,1.9,4.1,5.3,4.8c2.2,0.5,2.9,0.8,2.9,1.7c0,1-1,1.5-2.4,1.5c-1.8,0-3.5-0.6-4.8-1.5l-1.8,2.9c1.7,1.3,4,1.9,6.5,1.9c4.2,0,7-2.1,7-5.4C105.2,32.2,103.3,30.8,100,30.1z"/>
  <path d="M170.8,30.1c-2.4-0.5-3.1-0.8-3.1-1.7c0-1.1,1.1-1.4,2.1-1.4c1.7,0,3,0.5,4.1,1.2l1.9-2.8c-1.4-1-3.4-1.7-5.8-1.7c-3.9,0-6.7,2.2-6.7,5.2c0,2.6,1.9,4.1,5.3,4.8c2.2,0.5,2.9,0.8,2.9,1.7c0,1-1,1.5-2.4,1.5c-1.8,0-3.5-0.6-4.8-1.5l-1.8,2.9c1.7,1.3,4,1.9,6.5,1.9c4.2,0,7-2.1,7-5.4C176,32.2,174.1,30.8,170.8,30.1z"/>
  <path d="M153.2,23.7c-1.8,0-3.5,0.7-4.7,2.3v-7.6h-4.4v17.6h4.4v-9.2c0-2.2,1.2-3.5,3-3.5c1.7,0,2.7,1,2.7,3v9.7h4.4v-10.5C158.6,25.8,156.8,23.7,153.2,23.7z"/>
  <path d="M36.1,30c0,8.3-6.7,15-15,15c-8.3,0-15-6.7-15-15c0-8.3,6.7-15,15-15C29.4,15,36.1,21.7,36.1,30z M30.9,30c0-5.4-4.4-9.8-9.8-9.8c-5.4,0-9.8,4.4-9.8,9.8c0,5.4,4.4,9.8,9.8,9.8C26.5,39.8,30.9,35.4,30.9,30z"/>
  <path d="M25.1,27.6l-3.5,0.7c-0.3-0.8-1-1.3-2-1.3c-1.4,0-2.3,1.1-2.3,2.9c0,1.9,0.9,2.9,2.3,2.9c1,0,1.7-0.5,2-1.3l3.5,0.7c-0.7,2.2-2.7,3.6-5.5,3.6c-3.3,0-5.9-2.3-5.9-5.9c0-3.6,2.6-5.9,5.9-5.9C22.4,24,24.4,25.4,25.1,27.6z"/>
  <path d="M26.4,30c0,3.6-2.6,5.9-5.9,5.9c-3.3,0-5.9-2.3-5.9-5.9c0-3.6,2.6-5.9,5.9-5.9C23.8,24,26.4,26.3,26.4,30z M18,30c0,1.9,0.9,2.9,2.3,2.9c1.4,0,2.3-1.1,2.3-2.9c0-1.9-0.9-2.9-2.3-2.9C18.9,27.1,18,28.1,18,30z"/>
  <path d="M21.1,30.9l3.5,0.7c-0.7,2.2-2.7,3.6-5.5,3.6c-3.3,0-5.9-2.3-5.9-5.9c0-3.6,2.6-5.9,5.9-5.9c2.8,0,4.8,1.4,5.5,3.6l-3.5,0.7c-0.3-0.8-1-1.3-2-1.3c-1.4,0-2.3,1.1-2.3,2.9c0,1.9,0.9,2.9,2.3,2.9C20.1,32.2,20.8,31.7,21.1,30.9z"/>
</svg>
