<svg xmlns="http://www.w3.org/2000/svg" viewBox="0 0 200 60" fill="white">
  <path d="M39.9,30.1c0,0,2.5-6.5,2.9-7.6c0.4-1.1,0.9-2.1,2.4-2.1c1.5,0,12.8,0,12.8,0s1.1-0.1,1.4,0.9c0.3,1,2.9,10.1,3.2,11.1c0.3,1,0.1,1.3-0.9,1.3c-1,0-2.5,0-2.5,0s-0.8,0.1-1.1-0.9c-0.3-1-0.4-1.3-0.4-1.3s-0.2-0.6-0.9-0.6c-0.7,0-8.4,0-8.4,0s-0.7-0.1-1,0.6c-0.3,0.7-0.4,1.3-0.4,1.3s-0.2,0.9-1.1,0.9c-0.9,0-2.5,0-2.5,0S39.5,32.8,39.9,30.1z M56.9,27.1c0.3-1.1,0.4-1.3,0.4-1.3s0.3-0.9-0.6-0.9c-0.9,0-4.9,0-4.9,0s-0.9-0.1-1.2,0.9c-0.3,1-0.4,1.3-0.4,1.3s-0.2,0.7,0.7,0.7c0.9,0,4.9,0,4.9,0S56.6,28.2,56.9,27.1z"/>
  <path d="M62.9,30.1c0,0,2.5-6.5,2.9-7.6c0.4-1.1,0.9-2.1,2.4-2.1c1.5,0,12.8,0,12.8,0s1.1-0.1,1.4,0.9c0.3,1,2.9,10.1,3.2,11.1c0.3,1,0.1,1.3-0.9,1.3c-1,0-2.5,0-2.5,0s-0.8,0.1-1.1-0.9c-0.3-1-0.4-1.3-0.4-1.3s-0.2-0.6-0.9-0.6c-0.7,0-8.4,0-8.4,0s-0.7-0.1-1,0.6c-0.3,0.7-0.4,1.3-0.4,1.3s-0.2,0.9-1.1,0.9c-0.9,0-2.5,0-2.5,0S62.5,32.8,62.9,30.1z M79.9,27.1c0.3-1.1,0.4-1.3,0.4-1.3s0.3-0.9-0.6-0.9c-0.9,0-4.9,0-4.9,0s-0.9-0.1-1.2,0.9c-0.3,1-0.4,1.3-0.4,1.3s-0.2,0.7,0.7,0.7c0.9,0,4.9,0,4.9,0S79.6,28.2,79.9,27.1z"/>
  <path d="M85.9,20.4c0,0,0.1-0.7,0.9-0.7c0.8,0,2.3,0,2.3,0s0.8-0.1,1.1,0.9c0.3,1,4.5,15.6,4.5,15.6s0.3,1-0.7,1c-1,0-2.5,0-2.5,0s-0.8,0.1-1.1-0.9c-0.3-1-4.5-15.6-4.5-15.6S85.6,19.7,85.9,20.4z"/>
  <path d="M96.9,20.4c0,0,0.1-0.7,0.9-0.7c0.8,0,2.3,0,2.3,0s0.8-0.1,1.1,0.9c0.3,1,4.5,15.6,4.5,15.6s0.3,1-0.7,1c-1,0-2.5,0-2.5,0s-0.8,0.1-1.1-0.9c-0.3-1-4.5-15.6-4.5-15.6S96.6,19.7,96.9,20.4z"/>
  <path d="M107.9,30.1c0,0,2.5-6.5,2.9-7.6c0.4-1.1,0.9-2.1,2.4-2.1c1.5,0,12.8,0,12.8,0s1.1-0.1,1.4,0.9c0.3,1,2.9,10.1,3.2,11.1c0.3,1,0.1,1.3-0.9,1.3c-1,0-2.5,0-2.5,0s-0.8,0.1-1.1-0.9c-0.3-1-0.4-1.3-0.4-1.3s-0.2-0.6-0.9-0.6c-0.7,0-8.4,0-8.4,0s-0.7-0.1-1,0.6c-0.3,0.7-0.4,1.3-0.4,1.3s-0.2,0.9-1.1,0.9c-0.9,0-2.5,0-2.5,0S107.5,32.8,107.9,30.1z M124.9,27.1c0.3-1.1,0.4-1.3,0.4-1.3s0.3-0.9-0.6-0.9c-0.9,0-4.9,0-4.9,0s-0.9-0.1-1.2,0.9c-0.3,1-0.4,1.3-0.4,1.3s-0.2,0.7,0.7,0.7c0.9,0,4.9,0,4.9,0S124.6,28.2,124.9,27.1z"/>
  <path d="M130.9,20.4c0,0,0.1-0.7,0.9-0.7c0.8,0,2.3,0,2.3,0s0.8-0.1,1.1,0.9c0.3,1,1.9,6.6,1.9,6.6s0.2,0.8,1,0.8c0.8,0,8.3,0,8.3,0s0.8,0,1.1-0.8c0.3-0.8,1.9-6.6,1.9-6.6s0.3-1,1.1-0.9c0.8,0.1,2.3,0,2.3,0s0.8-0.1,0.5,0.7c-0.3,0.8-4.5,15.6-4.5,15.6s-0.3,1-1.1,0.9c-0.8-0.1-2.3,0-2.3,0s-0.8,0.1-1.1-0.9c-0.3-1-0.7-2.5-0.7-2.5s-0.2-0.8-1-0.8c-0.8,0-8.3,0-8.3,0s-0.8,0-1.1,0.8c-0.3,0.8-0.7,2.5-0.7,2.5s-0.3,1-1.1,0.9c-0.8-0.1-2.3,0-2.3,0s-0.8,0.1-0.5-0.9C126.7,36,130.9,20.4,130.9,20.4z"/>
</svg>
